<?xml version="1.0" encoding="utf-8"?>
<!-- Generator: Adobe Illustrator 26.0.1, SVG Export Plug-In . SVG Version: 6.00 Build 0)  -->
<svg version="1.1" id="Layer_1" xmlns="http://www.w3.org/2000/svg" xmlns:xlink="http://www.w3.org/1999/xlink" x="0px" y="0px"
	 viewBox="0 0 269.8 78.7" style="enable-background:new 0 0 269.8 78.7;" xml:space="preserve">
<style type="text/css">
	.st0{fill:url(#SVGID_1_);}
	.st1{fill:url(#SVGID_00000094576058406117182480000009300774008795659923_);}
	.st2{fill:url(#SVGID_00000178170522606955175780000018039284105335705264_);}
	.st3{fill:url(#SVGID_00000172412726294656233060000004118561120724570047_);}
	.st4{fill:url(#SVGID_00000091009335612944692550000002941270815306504639_);}
	.st5{fill:url(#SVGID_00000086682314016150384300000005337636056724233407_);}
	.st6{fill:url(#SVGID_00000129179058662602190240000011837075426076669828_);}
	.st7{fill:url(#SVGID_00000096038497475186209470000013254077272450269839_);}
	.st8{fill:url(#SVGID_00000072240564008947876220000000829396053155685268_);}
	.st9{fill:url(#SVGID_00000074415225750586853060000002562140259965402274_);}
	.st10{fill:url(#SVGID_00000170275288402724897840000002221675758466132394_);}
	.st11{fill:url(#SVGID_00000078027521523293951720000011071476157688743832_);}
	.st12{fill:url(#SVGID_00000154420026321555295900000010713708887074465203_);}
	.st13{fill:url(#SVGID_00000130642370714986702730000001867810998660496781_);}
	.st14{fill:url(#SVGID_00000041979942190368338580000006720911425481979576_);}
	.st15{fill:url(#SVGID_00000056416676332514312570000007505034759355647397_);}
	.st16{fill:url(#SVGID_00000121281038234658175820000010915307655749335227_);}
	.st17{fill:#FFFFFF;}
	.st18{fill:none;}
	.st19{fill:url(#SVGID_00000028317086650408676130000003354514636973666461_);}
	.st20{fill:#16141A;}
</style>
<g>
	<g>
		<radialGradient id="SVGID_1_" cx="26.2024" cy="42.0425" r="11.9817" gradientUnits="userSpaceOnUse">
			<stop  offset="0" style="stop-color:#F05025"/>
			<stop  offset="0.5376" style="stop-color:#D72027"/>
			<stop  offset="1" style="stop-color:#931A1D"/>
		</radialGradient>
		<path class="st0" d="M62.8,41.3c0-0.5-0.2-1.8-0.2-1.8s-17.1,0-22,0v6.3h15c0,0-0.3,1.4-0.5,2c-2.2,8.2-9.3,13.5-18.2,13.5
			c-10.8,0-18.9-8-18.9-18.7c0-10.6,8.1-18.7,18.9-18.7c6.5,0,11.9,2.8,15.5,7.8c2.5,3.5,5.4,3.7,9.2,3.4c0,0-0.6-1.6-0.8-2.1
			c-4.4-10-13.2-16-23.9-16C22.7,17,11,28.5,11,42.6c0,14.1,11.6,25.6,25.9,25.6c7.4,0,14.4-3.1,19.3-8.6
			C60.8,54.5,63.1,47.9,62.8,41.3z"/>
		
			<radialGradient id="SVGID_00000003788770575729153460000012441083902074565522_" cx="39.652" cy="40.3731" r="19.3679" gradientUnits="userSpaceOnUse">
			<stop  offset="0" style="stop-color:#B8C1C7"/>
			<stop  offset="0.5376" style="stop-color:#49545C"/>
			<stop  offset="1" style="stop-color:#0E2430"/>
		</radialGradient>
		<path style="fill:url(#SVGID_00000003788770575729153460000012441083902074565522_);" d="M71.8,47.9c0.3-2.3,0.4-4.9,0.3-7.9
			c-0.3,0-7.6,0-7.6,0C66,56,53.3,69.9,36.9,69.9c-15.2,0-27.6-12.2-27.6-27.3c0-15.1,12.4-27.3,27.6-27.3c12,0,22.4,7.6,26.3,18.8
			H72V34c-2.3-0.4-5-0.6-5.1-0.9c-0.4-1.5-1-2.9-1.7-4.2l3.1-2.2c-1.6-3.2-3.8-6.1-6.3-8.6l-3.1,2.2c-1.8-2-4.7-3.9-7.2-5.2
			c0.4-1.2,0.9-2.4,1.2-3.6c-3.2-1.6-6.7-2.7-10.3-3.3l-1.2,3.6c-3.3-0.5-5.9-0.4-8.9,0c-0.3-1.2-0.7-2.5-1.1-3.6
			c-3.6,0.6-7,1.7-10.2,3.3l1.2,3.6c-2.7,1.5-5,3.1-7.2,5.2L12,18.1c-2.5,2.5-4.7,5.4-6.3,8.6l3.1,2.2c-1.3,2.7-2.2,5.4-2.8,8.4H2.2
			c-0.6,3.5-0.5,7.1,0,10.6H6c0.6,3,1.4,5.7,2.8,8.4l-3.1,2.2c1.6,3.1,3.8,6,6.3,8.6l3.1-2.2c1.9,1.8,4.8,4.1,7.1,5.2
			c0.1,0.1,0.1,0.1-1.1,3.6c3.2,1.6,6.7,2.7,10.2,3.3l1.2-3.6c3.1,0.4,5.8,0.4,8.9,0l1.2,3.6c3.6-0.6,7-1.7,10.2-3.3l-1.2-3.6
			c2.7-1.3,5-3.1,7.2-5.2l3.1,2.2c2.5-2.5,4.7-5.4,6.3-8.6l-3.1-2.2c1.3-2.7,2.2-5.4,2.8-8.4H71.8z"/>
		
			<radialGradient id="SVGID_00000158021738030497455780000012240590397682989444_" cx="31.6292" cy="25.2624" r="34.4451" gradientUnits="userSpaceOnUse">
			<stop  offset="0" style="stop-color:#F05025"/>
			<stop  offset="0.5376" style="stop-color:#EB2127"/>
			<stop  offset="1" style="stop-color:#B11F24"/>
		</radialGradient>
		<path style="fill:url(#SVGID_00000158021738030497455780000012240590397682989444_);" d="M61.9,41c-3.6,0-15.5,0-19.7,0
			c-0.1,0-0.1,0-0.2,0v3.5l18.7,0.2c-0.2,1.3-1.4,1.9-3.1,2.3c-2.1,9.9-10.3,16.5-20.7,16.5c-12.1,0-21.1-9-21.1-20.9
			c0-11.9,9.1-20.9,21.1-20.9c7.3,0,13.4,3.1,17.3,8.7c1.9,2.7,2.3,2.8,5.8,2.8C56.3,24,47,17.9,36.9,17.9c-13.8,0-25,11.1-25,24.7
			c0,13.6,11.2,24.7,25,24.7c12.8,0,23.5-9.5,24.9-22.1C62,43.8,62,42.4,61.9,41z"/>
		<g>
			
				<linearGradient id="SVGID_00000028318286009387051790000011659704944751901110_" gradientUnits="userSpaceOnUse" x1="34.5889" y1="2.4146" x2="38.8798" y2="73.6839">
				<stop  offset="0" style="stop-color:#B8C1C7"/>
				<stop  offset="0.475" style="stop-color:#49545C"/>
				<stop  offset="1" style="stop-color:#0E2430"/>
			</linearGradient>
			<path style="fill:url(#SVGID_00000028318286009387051790000011659704944751901110_);" d="M67.9,46.9L67.9,46.9l3.9,1
				c0.4-1.8,0.5-5.6,0.3-7.9l-5.4,1.1c0.4,8-2.4,15.7-8,21.5c-5.7,6-13.3,9.2-21.7,9.2c-16.4,0-29.7-13.2-29.7-29.3
				c0-16.2,13.3-29.3,29.7-29.3c12.4,0,23.6,7.8,27.9,19.3h1.6c-0.5-1.6-1-2.8-2-4.4l0-0.1l3.7-1.5c-1.3-2.7-3.9-6.3-6.2-8.5
				l-2.6,3.1l0-0.1c-2.4-2.8-5.3-4.6-8.6-6.4l0,0l0,0c0.3-1,0.7-1.9,1-2.9l0.2-0.6c-2.6-1.2-5.4-2.1-8.3-2.7l-1.2,3.7l0,0
				c-1.8-0.2-3.5-0.4-5.4-0.4c-1.9,0-3.7,0.2-5.4,0.4l0,0l0,0c-0.3-1-0.6-2-0.9-3l-0.2-0.7c-2.9,0.6-5.7,1.4-8.3,2.7l1.2,3.6l0,0
				c-3.4,1.9-5.8,3.6-8.7,6.3l0,0l-3.1-2.2c-2,2.1-3.7,4.5-5.1,6.9l3.1,2.2l0,0C7.7,31.6,6.8,34.4,6,38.3l0,0H2.2
				c-0.4,2.8-0.4,5.7,0,8.6H6l0,0c0.7,3.9,1.6,6.6,3.3,10.1l0,0l-3.1,2.2c1.4,2.5,3.1,4.8,5.1,6.9l3.1-2.3l0,0
				c2.7,2.6,4.9,4.1,8.1,6.1l0.3,0.1l-1.8,3.4c2.6,1.3,6.3,2.7,10.2,3.3l0.2-4l0,0c2,0.3,3.7,0.5,5.4,0.5c1.7,0,3.4-0.2,5.4-0.5l0,0
				l0.2,4c3-0.5,7.3-1.7,10.2-3.3l-2.2-3.4l0,0c3.7-1.8,5.9-3.6,8.7-6.2l0,0l2.5,3.1c2.1-2,5-5.8,6.3-8.6l-3.7-1.4l0,0
				C66.4,53.4,67.3,50.7,67.9,46.9z"/>
		</g>
		
			<radialGradient id="SVGID_00000106847721651305393100000000500885235301916598_" cx="60.6407" cy="45.2823" r="2.9409" gradientUnits="userSpaceOnUse">
			<stop  offset="3.000000e-02" style="stop-color:#FFFFFF"/>
			<stop  offset="0.315" style="stop-color:#F05025"/>
			<stop  offset="0.5976" style="stop-color:#EB2127"/>
			<stop  offset="1" style="stop-color:#B11F24"/>
		</radialGradient>
		<path style="fill:url(#SVGID_00000106847721651305393100000000500885235301916598_);" d="M57.5,47c1-0.1,2.9-0.8,3.2-2.1l0.2-0.3
			c-0.2,1.6-1.6,2.3-3.1,2.4L57.5,47z"/>
		
			<linearGradient id="SVGID_00000063627917612549839560000016293746415970041752_" gradientUnits="userSpaceOnUse" x1="45.1347" y1="46.1881" x2="19.9474" y2="33.8743">
			<stop  offset="0" style="stop-color:#F05025"/>
			<stop  offset="0.5376" style="stop-color:#EB2127"/>
			<stop  offset="1" style="stop-color:#B11F24"/>
		</linearGradient>
		<path style="fill:url(#SVGID_00000063627917612549839560000016293746415970041752_);" d="M36.9,17.9c-13.8,0-25,11.1-25,24.7
			c0,7.5,3.4,14.2,8.7,18.7c1-0.8,1.9-1.6,2.9-2.4c-4.7-3.8-7.7-9.6-7.7-16.3c0-11.9,9.1-20.9,21.1-20.9c6.7,0,12.4,2.6,16.3,7.3
			c0.8-0.9,1.7-1.8,2.5-2.8C51,21.1,44.2,17.9,36.9,17.9z"/>
		
			<linearGradient id="SVGID_00000061455545925313593310000014678524583166434482_" gradientUnits="userSpaceOnUse" x1="50.2388" y1="54.9974" x2="9.5233" y2="18.6666">
			<stop  offset="0" style="stop-color:#B8C1C7"/>
			<stop  offset="0.475" style="stop-color:#49545C"/>
			<stop  offset="1" style="stop-color:#0E2430"/>
		</linearGradient>
		<path style="fill:url(#SVGID_00000061455545925313593310000014678524583166434482_);" d="M59.3,21.2c-2.4-2.9-5.4-4.6-8.6-6.4
			l2.2-3.3c-2.6-1.4-6.5-2.8-10.3-3.3l-0.3,3.9c-1.8-0.2-3.6-0.4-5.4-0.4c-1.8,0-3.6,0.2-5.4,0.4l-0.2-3.9
			c-3.2,0.4-7.6,1.9-10.2,3.3l2.1,3.3c-3.5,1.9-5.9,3.6-8.7,6.3l-2.5-3c-2.2,2.1-4.9,5.7-6.3,8.6l3.7,1.4C7.6,31.7,6.7,34.5,6,38.3
			l-3.8-1c-0.5,3-0.6,7.1,0,10.6l3.8-1c0.7,3.9,1.6,6.6,3.3,10.2l-3.7,1.4c1.4,2.8,4,6.4,6.3,8.6l2.5-3c0.3,0.3,0.6,0.6,0.9,0.9
			c0.5-0.3,0.9-0.6,1.3-0.9c-5.8-5.3-9.5-13-9.5-21.4c0-16.1,13.3-29.3,29.6-29.3c8.4,0,16.4,3.7,21.9,9.6l2.6-4.2L59.3,21.2z"/>
		
			<radialGradient id="SVGID_00000158002699718120637320000008225746378838574730_" cx="40.3227" cy="13.7264" r="21.5292" gradientUnits="userSpaceOnUse">
			<stop  offset="0" style="stop-color:#FFFFFF"/>
			<stop  offset="0.355" style="stop-color:#B8C1C7"/>
			<stop  offset="0.7476" style="stop-color:#49545C"/>
			<stop  offset="1" style="stop-color:#0E2430"/>
		</radialGradient>
		<path style="fill:url(#SVGID_00000158002699718120637320000008225746378838574730_);" d="M37.3,13.2C30.4,13,24,15.4,18.5,19.5
			C11,25.4,7.1,33.6,7.1,42.6h0.6c-0.1-8.9,3.8-16.9,11.1-22.8c5.4-4,11.8-6.5,18.6-6.3c13,0.5,22.5,7.4,27.4,19.2l0.1-0.1
			C60,20.7,50.6,13.7,37.3,13.2z"/>
		
			<radialGradient id="SVGID_00000160166199946110733830000013430074118421867448_" cx="41.5182" cy="57.3504" r="23.1341" gradientUnits="userSpaceOnUse">
			<stop  offset="0" style="stop-color:#FFFFFF"/>
			<stop  offset="0.355" style="stop-color:#B8C1C7"/>
			<stop  offset="0.7476" style="stop-color:#49545C"/>
			<stop  offset="1" style="stop-color:#0E2430"/>
		</radialGradient>
		<path style="fill:url(#SVGID_00000160166199946110733830000013430074118421867448_);" d="M66.6,41.1h-0.1
			c0.3,14.2-8.4,26.5-22.7,29.8c-15.5,3.7-31-5.9-35.1-20.6c-0.7-2.6-1-5.2-1-7.7H7.1c0,2.6,0.4,5.2,1,7.8
			c4.1,14.9,20,24.6,35.7,20.8C58.3,67.9,67,55.5,66.6,41.1z"/>
		
			<radialGradient id="SVGID_00000030463757426624372010000011557517248621773697_" cx="41.9174" cy="40.5525" r="10.5331" gradientUnits="userSpaceOnUse">
			<stop  offset="3.000000e-02" style="stop-color:#FFFFFF"/>
			<stop  offset="0.315" style="stop-color:#F05025"/>
			<stop  offset="0.5976" style="stop-color:#EB2127"/>
			<stop  offset="1" style="stop-color:#B11F24"/>
		</radialGradient>
		<path style="fill:url(#SVGID_00000030463757426624372010000011557517248621773697_);" d="M42,40.8v0.4c4.1,0.3,16.2,0,19.9-0.1
			v-0.2C58.3,40.9,45.9,41,42,40.8z"/>
		
			<radialGradient id="SVGID_00000060727910858748596430000015690158522787208325_" cx="51.6238" cy="44.728" r="10.2505" gradientUnits="userSpaceOnUse">
			<stop  offset="3.000000e-02" style="stop-color:#FFFFFF"/>
			<stop  offset="0.315" style="stop-color:#F05025"/>
			<stop  offset="0.5976" style="stop-color:#EB2127"/>
			<stop  offset="1" style="stop-color:#B11F24"/>
		</radialGradient>
		<path style="fill:url(#SVGID_00000060727910858748596430000015690158522787208325_);" d="M45.8,44.3c-1.3,0-2.6-0.1-3.7-0.1v0.4
			c1.2,0,2.5,0.1,3.7,0.1c4.9,0,10.1,0.1,14.9,0.1l0.2-0.3C56,44.5,50.7,44.4,45.8,44.3z"/>
		
			<radialGradient id="SVGID_00000142167310116503426110000000554545460531180197_" cx="35.1565" cy="22.5178" r="24.7359" gradientUnits="userSpaceOnUse">
			<stop  offset="3.000000e-02" style="stop-color:#FFFFFF"/>
			<stop  offset="0.315" style="stop-color:#F05025"/>
			<stop  offset="0.5976" style="stop-color:#EB2127"/>
			<stop  offset="1" style="stop-color:#B11F24"/>
		</radialGradient>
		<path style="fill:url(#SVGID_00000142167310116503426110000000554545460531180197_);" d="M60.1,33.3c-3-0.1-3.7-0.1-5.4-2.6
			c-4.4-6.4-11.2-9.6-18.9-9.1c-11.9,0.8-20.8,9.7-20.2,21.9c0,0,0,0.1,0,0.1c0.2,0,0.4-0.1,0.7-0.1c0,0,0,0,0-0.1
			C15.6,31.8,24,22.9,35.7,22.1c7.6-0.5,14.2,2.6,18.6,8.8c1.8,2.6,2.7,2.5,5.8,2.6L60.1,33.3z"/>
		
			<radialGradient id="SVGID_00000034770229804615852220000005267955027999773882_" cx="39.2961" cy="62.5136" r="33.1845" gradientUnits="userSpaceOnUse">
			<stop  offset="3.000000e-02" style="stop-color:#FFFFFF"/>
			<stop  offset="0.315" style="stop-color:#F05025"/>
			<stop  offset="0.5976" style="stop-color:#EB2127"/>
			<stop  offset="1" style="stop-color:#B11F24"/>
		</radialGradient>
		<path style="fill:url(#SVGID_00000034770229804615852220000005267955027999773882_);" d="M57.5,47C54.9,57,48,62.8,37.3,63.2
			C25.7,63.5,16.8,55,16.2,43.5c-0.2,0-0.4,0.1-0.7,0.1c0.7,12,10,20.5,21.8,20.2c10.9-0.5,17.9-6.4,20.4-16.7L57.5,47z"/>
	</g>
	<g>
		
			<linearGradient id="SVGID_00000021800650953732478440000000547581424814689469_" gradientUnits="userSpaceOnUse" x1="94.6285" y1="2.2184" x2="94.6285" y2="39.4913">
			<stop  offset="0" style="stop-color:#F05025"/>
			<stop  offset="0.5376" style="stop-color:#D72027"/>
			<stop  offset="1" style="stop-color:#931A1D"/>
		</linearGradient>
		<path style="fill:url(#SVGID_00000021800650953732478440000000547581424814689469_);" d="M111.1,36.2c0,3.3-0.9,6.2-2.6,8.8
			c-1.7,2.6-4.1,4.5-7.2,5.7c-2.1,0.8-4,1.2-5.8,1.2c-2.3,0-4-0.2-5.1-0.6c-3.6-1.2-6.5-3.3-8.8-6.3c-2.3-3.1-3.5-6.5-3.5-10.2
			c0-4.4,1.7-8.3,5.2-11.6c3.5-3.3,7.4-5,11.8-5c3.3,0,6,0.5,8.2,1.6l1.6,0.7l-3.8,4.1c-1.6-0.9-3.6-1.4-5.8-1.4c-3,0-5.7,1.1-8,3.3
			c-2.4,2.2-3.5,4.8-3.5,7.8l0.1,0.1c0,3.1,1,5.8,3.1,8.2c2.2,2.5,4.8,3.8,7.9,3.8c2.4,0,4.5-0.7,6.4-2c2.1-1.4,3.3-3.2,3.7-5.5
			h-8.2v-5.2h14.4V36.2z"/>
		
			<linearGradient id="SVGID_00000107585125762361376060000010887705442275964863_" gradientUnits="userSpaceOnUse" x1="126.1541" y1="2.2184" x2="126.1541" y2="39.4913">
			<stop  offset="0" style="stop-color:#F05025"/>
			<stop  offset="0.5376" style="stop-color:#D72027"/>
			<stop  offset="1" style="stop-color:#931A1D"/>
		</linearGradient>
		<path style="fill:url(#SVGID_00000107585125762361376060000010887705442275964863_);" d="M138.7,39.1c0,3.7-1.2,6.7-3.5,9.1
			c-2.4,2.4-5.4,3.6-9.1,3.6c-3.6,0-6.6-1.2-9-3.6c-2.4-2.4-3.6-5.4-3.6-9V18.8h5.7v19.5c0,2.4,0.5,4.3,1.6,5.8
			c1.2,1.6,2.9,2.4,5.2,2.4c4.6,0,6.9-2.8,6.9-8.4V18.8h5.7V39.1z"/>
		
			<linearGradient id="SVGID_00000004542247366883281380000010606651560230186906_" gradientUnits="userSpaceOnUse" x1="149.3892" y1="2.2184" x2="149.3892" y2="39.4913">
			<stop  offset="0" style="stop-color:#F05025"/>
			<stop  offset="0.5376" style="stop-color:#D72027"/>
			<stop  offset="1" style="stop-color:#931A1D"/>
		</linearGradient>
		<path style="fill:url(#SVGID_00000004542247366883281380000010606651560230186906_);" d="M157.1,51.1h-15.4V18.8h5.7v27.1h9.7
			V51.1z"/>
		
			<linearGradient id="SVGID_00000049190917221977797490000016235730442836909449_" gradientUnits="userSpaceOnUse" x1="167.6066" y1="2.2184" x2="167.6066" y2="39.4913">
			<stop  offset="0" style="stop-color:#F05025"/>
			<stop  offset="0.5376" style="stop-color:#D72027"/>
			<stop  offset="1" style="stop-color:#931A1D"/>
		</linearGradient>
		<path style="fill:url(#SVGID_00000049190917221977797490000016235730442836909449_);" d="M175.3,23.9l-9.6,0.1v6.9l9.2,0l-0.1,5.1
			l-9.1,0.1v15.1h-5.8V18.8l15.4,0V23.9z"/>
	</g>
	<path class="st17" d="M201.6,23.9l-9.6,0.1v6.9l9.2,0l-0.1,5.1l-9.1,0.1v15.1h-5.8V18.8l15.4,0V23.9z"/>
	<path class="st17" d="M210.1,51.1h-5.7V18.8h5.7V51.1z"/>
	<path class="st17" d="M246.7,51.1h-5.7V18.8h5.7V51.1z"/>
	<path class="st17" d="M268.1,23.9l-6.5,0.1v27.1h-5.7V24l-6.7-0.1l0.2-5.1h18.7V23.9z"/>
	<polygon class="st18" points="230.6,36.9 228.9,34.2 228.9,34.3 	"/>
	<g>
		
			<linearGradient id="SVGID_00000057114220964113697120000015873393008117257656_" gradientUnits="userSpaceOnUse" x1="225.5966" y1="31.4065" x2="234.3309" y2="22.6722">
			<stop  offset="0" style="stop-color:#F05025"/>
			<stop  offset="0.5376" style="stop-color:#D72027"/>
			<stop  offset="1" style="stop-color:#931A1D"/>
		</linearGradient>
		<path style="fill:url(#SVGID_00000057114220964113697120000015873393008117257656_);" d="M229.2,33.8l9.5-14.9h-6.6l-6.1,9.7
			C227,30.4,228.2,32,229.2,33.8z"/>
	</g>
	<path class="st17" d="M230.6,36.9l-1.6-2.7l0,0l-3.2-5.1l-5.1-8.7l0,0c-0.2-0.4-0.4-0.7-0.7-1.1l-0.3-0.5h0c-0.6-1-1.3-2.1-1.9-3.1
		c-1.3-2.1-2.5-4.1-3.8-6.2c-0.2,0.1-0.4,0.1-0.5,0.3c1.8,3,3.6,6,5.5,9H218c-1.9-2.7-3.8-5.5-5.7-8.2c-0.3,0-0.5,0.3-0.7,0.3
		c0.1-0.1,0.2-0.2,0.3-0.3c0.5-0.4,0.9-0.7,1.4-1.1c0.5-0.3,0.6-0.8,0.3-1.3c0-0.1-0.1-0.2-0.1-0.2c-0.4-0.7-0.4-1.8,0.5-2.3
		c0.2-0.1,0.4-0.2,0.6-0.3c0.9-0.5,1.7-0.9,2.7-1.2c1.1-0.3,2.2-0.3,3.3-0.1c0.4,0.1,0.9,0.1,1.3,0.2c0.1,0,0.3,0,0.4,0
		c0.3-0.1,0.5-0.4,0.5-0.6c0-0.2-0.1-0.4-0.5-0.5c-1.1-0.4-2.2-0.6-3.4-0.8c-1.8-0.3-3.7-0.5-5.6-0.3c-1.5,0.1-3,0.4-4.3,1.3
		c-1.6,1.1-3.3,2-4.9,3c-0.5,0.3-0.6,0.8-0.4,1.3c0,0.1,0.1,0.2,0.1,0.3c0.1,0.3,0,0.6-0.3,0.8c-0.3,0.2-0.5,0.2-0.8,0
		c-0.1-0.1-0.2-0.2-0.3-0.3c-0.1-0.2-0.3-0.3-0.5-0.4c-0.6-0.3-1.1-0.1-1.5,0.2c-0.5,0.3-1,0.7-1.6,1.1c-0.7,0.4-0.9,1.3-0.4,2
		c1.1,1.6,2.2,3.3,3.4,4.9c0.2,0.2,0.4,0.4,0.6,0.5c0.4,0.2,0.8,0.1,1.2-0.1c0.6-0.4,1.2-0.8,1.8-1.2c0.6-0.4,0.8-1.1,0.4-1.8
		c-0.1-0.1-0.1-0.2-0.2-0.4c-0.1-0.4,0.1-0.8,0.4-0.9c0.3-0.2,0.7-0.1,1,0.3c0.1,0.1,0.1,0.2,0.2,0.3c0.3,0.4,0.8,0.5,1.2,0.3
		c0.2-0.1,0.4-0.2,0.6-0.4c1.4,2.1,2.8,4.3,4.2,6.4l9.2,15.2l-10.6,16.9h6.5l7.4-11.8l7,11.8h6.5L230.6,36.9z M200.2,9
		c-0.3,0.2-0.6,0.5-0.9,0.8c-0.3,0.4-0.4,0.8-0.2,1.3c0,0.1,0.1,0.2,0.1,0.3c-0.3-0.4-0.6-0.8-0.5-1.2c0-0.1,0.1-0.3,0.1-0.4
		c0.4-0.6,1-1,1.7-1.2C200.5,8.7,200.4,8.8,200.2,9z M205.5,6c-0.1,0.1-0.2,0.1-0.3,0.1c1.8-1.4,3.7-2.6,5.8-3.4
		c0.8-0.3,1.7-0.4,2.6-0.4c0.7,0,1.3,0,2,0.1c-0.5,0-1,0-1.5,0.1c-1.7,0-3.3,0.6-4.9,1.4C208,4.6,206.7,5.3,205.5,6z"/>
	<path class="st20" d="M211.5,11C211.6,11,211.6,10.9,211.5,11C211.6,11,211.6,11,211.5,11z"/>
	<g>
		<path class="st17" d="M84.1,58.1l-2.1,0v8.6h-1.8v-8.6l-2.1,0l0.1-1.6h5.9V58.1z"/>
		<path class="st17" d="M90.8,66.7h-4.9V56.5l4.9,0l0,1.8h-3.1v2.1h2.9v1.8h-2.9v2.7h3.1L90.8,66.7z"/>
		<path class="st17" d="M100.8,66.1c-1,0.5-2,0.8-2.9,0.8c-1.5,0-2.8-0.5-3.9-1.6c-1.1-1.1-1.7-2.4-1.7-3.9c0-1.5,0.6-2.7,1.7-3.7
			c1.1-1,2.4-1.5,3.9-1.5c0.6,0,1.1,0.1,1.5,0.2c0.4,0.1,0.8,0.3,1.4,0.6l-1,1.2c-0.3-0.2-1-0.3-2-0.3c-1,0-1.8,0.4-2.6,1.1
			c-0.8,0.7-1.1,1.6-1.1,2.5c0,1,0.4,1.9,1.1,2.7c0.7,0.7,1.6,1.1,2.6,1.1c0.9,0,1.5-0.2,2-0.6L100.8,66.1z"/>
		<path class="st17" d="M110.3,66.7h-1.8V62h-4.3v4.7h-1.8V56.5h1.8v3.9h4.3v-3.9h1.8V66.7z"/>
		<path class="st17" d="M120,66.9l-5.9-5.9v5.9h-2V56.1L118,62v-5.7h2.1V66.9z"/>
		<path class="st17" d="M123.8,66.7H122V56.5h1.8V66.7z"/>
		<path class="st17" d="M134,66.1c-1,0.5-2,0.8-2.9,0.8c-1.5,0-2.8-0.5-3.9-1.6c-1.1-1.1-1.7-2.4-1.7-3.9c0-1.5,0.6-2.7,1.7-3.7
			c1.1-1,2.4-1.5,3.9-1.5c0.6,0,1.1,0.1,1.5,0.2c0.4,0.1,0.8,0.3,1.4,0.6l-1,1.2c-0.3-0.2-1-0.3-2-0.3c-1,0-1.8,0.4-2.6,1.1
			c-0.8,0.7-1.1,1.6-1.1,2.5c0,1,0.4,1.9,1.1,2.7c0.7,0.7,1.6,1.1,2.6,1.1c0.9,0,1.5-0.2,2-0.6L134,66.1z"/>
		<path class="st17" d="M145.5,66.7h-2l-0.7-1.3h-5.3l-0.6,1.3h-2l5.3-10.7L145.5,66.7z M142.1,63.8l-1.9-3.9l-2,3.9H142.1z"/>
		<path class="st17" d="M151.7,66.7h-4.9V56.5h1.8v8.6h3.1V66.7z"/>
		<path class="st17" d="M165.2,63.6c0,0.9-0.4,1.7-1.1,2.3c-0.7,0.7-1.5,1-2.4,1c-1,0-1.8-0.3-2.4-0.8c-0.4-0.4-0.9-0.8-1.2-1.2
			l1.2-1.2c0.7,0.8,1.6,1.3,2.6,1.5c0.5,0,0.9-0.2,1.2-0.5c0.3-0.3,0.4-0.7,0.4-1.2c0-0.6-0.4-1-1.2-1.4c-0.7-0.4-1.5-0.7-2.2-1
			c-0.8-0.5-1.2-1.3-1.2-2.2c0-0.8,0.4-1.5,1.1-2c0.6-0.5,1.4-0.7,2.2-0.7c1.3,0,2.2,0.4,2.8,1.1l-1.1,1.2c-0.6-0.4-1.2-0.7-1.8-0.7
			c-0.3,0-0.7,0.1-0.9,0.3c-0.3,0.2-0.5,0.5-0.5,0.8c0,0.4,0.2,0.7,0.7,1c0.1,0,0.5,0.2,1.2,0.5c0.5,0.2,0.9,0.4,1.4,0.7
			c0.5,0.4,0.9,0.7,1,1.1c0.1,0.1,0.1,0.4,0.2,0.7C165.1,63.2,165.2,63.4,165.2,63.6z"/>
		<path class="st17" d="M171.7,66.7h-4.9V56.5l4.9,0l0,1.8h-3.1v2.1h2.9v1.8h-2.9v2.7h3.1L171.7,66.7z"/>
		<path class="st17" d="M177.7,59.6c-0.3-1-1.1-1.4-2.5-1.4v4.4l0,4.1h-1.8V56.5h2.1c1.3,0,2.2,0.3,2.9,0.8c0.8,0.7,1.2,1.7,1.3,3
			c0,1-0.4,1.7-0.9,2.3l-0.7,0.7l2.4,3.4h-2.2l-2.9-4.1c1.1-0.1,1.8-0.6,2.2-1.5C177.9,60.6,177.9,60.1,177.7,59.6z"/>
		<path class="st17" d="M189.9,56.5l-4.8,10.8l-4.9-10.8h2l2.8,6.5l2.8-6.5H189.9z"/>
		<path class="st17" d="M193,66.7h-1.8V56.5h1.8V66.7z"/>
		<path class="st17" d="M203.2,66.1c-1,0.5-2,0.8-2.9,0.8c-1.5,0-2.8-0.5-3.9-1.6c-1.1-1.1-1.7-2.4-1.7-3.9c0-1.5,0.6-2.7,1.7-3.7
			c1.1-1,2.4-1.5,3.9-1.5c0.6,0,1.1,0.1,1.5,0.2c0.4,0.1,0.8,0.3,1.4,0.6l-1,1.2c-0.3-0.2-1-0.3-2-0.3c-1,0-1.8,0.4-2.6,1.1
			c-0.8,0.7-1.1,1.6-1.1,2.5c0,1,0.4,1.9,1.1,2.7c0.7,0.7,1.6,1.1,2.6,1.1c0.9,0,1.5-0.2,2-0.6L203.2,66.1z"/>
		<path class="st17" d="M209.7,66.7h-4.9V56.5l4.9,0l0,1.8h-3.1v2.1h2.9v1.8h-2.9v2.7h3.1L209.7,66.7z"/>
		<path class="st17" d="M217.8,63.6c0,0.9-0.4,1.7-1.1,2.3c-0.7,0.7-1.5,1-2.4,1c-1,0-1.8-0.3-2.4-0.8c-0.4-0.4-0.9-0.8-1.2-1.2
			l1.2-1.2c0.7,0.8,1.6,1.3,2.6,1.5c0.5,0,0.9-0.2,1.2-0.5c0.3-0.3,0.4-0.7,0.4-1.2c0-0.6-0.4-1-1.2-1.4c-0.7-0.4-1.5-0.7-2.2-1
			c-0.8-0.5-1.2-1.3-1.2-2.2c0-0.8,0.4-1.5,1.1-2c0.6-0.5,1.4-0.7,2.2-0.7c1.3,0,2.2,0.4,2.8,1.1l-1.1,1.2c-0.6-0.4-1.2-0.7-1.8-0.7
			c-0.3,0-0.7,0.1-0.9,0.3c-0.3,0.2-0.5,0.5-0.5,0.8c0,0.4,0.2,0.7,0.7,1c0.1,0,0.5,0.2,1.2,0.5c0.5,0.2,0.9,0.4,1.4,0.7
			c0.5,0.4,0.9,0.7,1,1.1c0.1,0.1,0.1,0.4,0.2,0.7C217.8,63.2,217.8,63.4,217.8,63.6z"/>
		<path class="st17" d="M228.9,66.7H224V56.5l4.9,0l0,1.8h-3.1v2.1h2.9v1.8h-2.9v2.7h3.1L228.9,66.7z"/>
		<path class="st17" d="M238.9,66.7h-2.1l-2.2-3.7l-2.3,3.7h-2.1l3.4-5.4l-3-4.9h2.1l1.9,3.3l2-3.3h2.1l-3.1,4.9L238.9,66.7z"/>
		<path class="st17" d="M246.4,59.8c0.1,1-0.1,1.7-0.3,2.1c-0.3,0.4-0.8,0.9-1.6,1.3c-0.7,0.2-1.5,0.3-2.3,0.3l0,3.2h-1.8l0-10.2
			h1.9c0.8-0.1,1.6,0,2.3,0.2c0.8,0.4,1.3,0.8,1.6,1.2C246.3,58.4,246.4,59,246.4,59.8z M244.8,60.1c-0.1-1.2-0.7-1.8-2-2h-0.6v3.7
			h0.7C244.1,61.7,244.8,61.1,244.8,60.1z"/>
		<path class="st17" d="M253.1,66.7h-4.9V56.5l4.9,0l0,1.8H250v2.1h2.9v1.8H250v2.7h3.1L253.1,66.7z"/>
		<path class="st17" d="M259.1,59.6c-0.3-1-1.1-1.4-2.5-1.4v4.4l0,4.1h-1.8V56.5h2.1c1.3,0,2.2,0.3,2.9,0.8c0.8,0.7,1.2,1.7,1.3,3
			c0,1-0.4,1.7-0.9,2.3l-0.7,0.7l2.4,3.4h-2.2l-2.9-4.1c1.1-0.1,1.8-0.6,2.2-1.5C259.3,60.6,259.3,60.1,259.1,59.6z"/>
		<path class="st17" d="M268.1,58.1l-2.1,0v8.6h-1.8v-8.6l-2.1,0l0.1-1.6h5.9V58.1z"/>
	</g>
</g>
</svg>
